<svg id="Layer_1" data-name="Layer 1" xmlns="http://www.w3.org/2000/svg" width="217.06mm" height="32.99mm" viewBox="0 0 615.28 93.51"><defs><style>.cls-1{fill:#398ccb;}.cls-2{fill:#c9e0ee;}</style></defs><title>casePRO_logo_text</title><path class="cls-1" d="M185.63,448l-.4,1c-5.12,13.1-17.24,21.24-31.63,21.24a36.8,36.8,0,0,1-25.42-10A33.13,33.13,0,0,1,117.56,436c0-18.88,16.17-34.23,36-34.23,14.14,0,26.21,8,31.49,20.83l.42,1H168.73l-.21-.34A17.57,17.57,0,0,0,153.47,415c-11.32,0-20.52,9.45-20.52,21.07a21.42,21.42,0,0,0,6,15,20.08,20.08,0,0,0,14.55,6.17,18,18,0,0,0,15.58-9l.22-.35Z" transform="translate(-117.56 -378.44)"/><path class="cls-1" d="M255.08,402.91v7c-2.68-2.61-9.46-7.8-21.06-7.8a36.85,36.85,0,0,0-25.47,9.94A33.16,33.16,0,0,0,198,436.37c0,18.8,16.17,34.1,36.05,34.1,11.6,0,18.38-5.18,21.06-7.79v6.62h14.71V402.91Zm-20.79,54.78c-11.31,0-20.52-9.45-20.52-21.06S223,415.3,234.29,415.3s20.52,9.57,20.52,21.33S245.61,457.69,234.29,457.69Z" transform="translate(-117.56 -378.44)"/><path class="cls-1" d="M341.48,449.35c0,12-11.16,21.12-26,21.12a32.93,32.93,0,0,1-19.19-6c-5.51-4-8.54-9.51-8.54-15.39v-.74h15.66v.74c0,4.15,4.85,8.6,12.07,8.6,7.64,0,11.12-4.26,11.12-8.21,0-3.43-2.43-7.39-7.86-8.49l-9.15-2.08a28.15,28.15,0,0,1-12.84-6.7,16.28,16.28,0,0,1-5-11.81,17.77,17.77,0,0,1,5.92-13.49c4-3.55,9.55-5.42,16.08-5.42,6.73,0,12.49,1.62,16.66,4.7A17.63,17.63,0,0,1,337.52,418l.13.86H322.41v-.75c0-2.67-4.49-4.32-8.66-4.32-4.9,0-7.71,2.38-7.71,6.53s1.59,5.31,4,6,5.12,1.39,9.06,2.19c6.46,1.23,11.94,3.66,15.84,7A17.9,17.9,0,0,1,341.48,449.35Z" transform="translate(-117.56 -378.44)"/><path class="cls-1" d="M417,411.87a35.15,35.15,0,0,0-25-10.12,36,36,0,0,0-25.33,10.12,33.82,33.82,0,0,0,0,48.62A36.05,36.05,0,0,0,392,470.6,34.66,34.66,0,0,0,423,452.15l.56-1.08H406l-.22.25a18.22,18.22,0,0,1-14,6.24c-9.21,0-17.06-6.39-19.37-15.65h54.21l.11-.61a30.39,30.39,0,0,0,.42-5.06A34.13,34.13,0,0,0,417,411.87Zm-44.34,18c2.59-8.86,10.14-14.74,19.06-14.74s16.22,5.89,18.68,14.74Z" transform="translate(-117.56 -378.44)"/><path class="cls-2" d="M491.16,380.17H451.83v90.05h23V449.83h16.31c21.19,0,35-13.59,35-35.12C526.15,393.53,511.79,380.17,491.16,380.17Zm-1.27,48.47h-15V401.36h15c8.33,0,13,5.17,13,13.46C502.9,423.47,498.67,428.64,489.89,428.64Z" transform="translate(-117.56 -378.44)"/><path class="cls-2" d="M604.3,442.92c11.85-5.4,17.56-17,17.56-29.82,0-20.62-13.23-32.93-33.41-32.93H544.9v90.05h22.92V446.15h11.4l16.87,24.07h27.59Zm-17.11-17.84H567.82V401.36h19.37c7.75,0,12.43,3.91,12.43,12C599.62,421,594.61,425.08,587.19,425.08Z" transform="translate(-117.56 -378.44)"/><path class="cls-2" d="M685.52,378.44c-25.53,0-47.31,20.72-47.31,46.75S660,472,685.52,472s47.32-20.62,47.32-46.76S711.17,378.44,685.52,378.44Zm-24,46.75a24.05,24.05,0,1,1,24,24.3A24.1,24.1,0,0,1,661.47,425.19Z" transform="translate(-117.56 -378.44)"/></svg>